<?xml version="1.0" encoding="UTF-8" standalone="no"?>
<!-- Created with Inkscape (http://www.inkscape.org/) -->

<svg
   width="42mm"
   height="42mm"
   viewBox="0 0 42 42"
   version="1.1"
   id="svg3563"
   xmlns="http://www.w3.org/2000/svg"
   xmlns:svg="http://www.w3.org/2000/svg">
  <defs
     id="defs3560" />
  <g
     id="layer1"
     transform="translate(-84.053857,-113.91367)">
    <path
       id="path55325-5-80-4"
       style="font-variation-settings:normal;vector-effect:none;fill:#009e8e;fill-opacity:1;fill-rule:evenodd;stroke:#000080;stroke-width:0;stroke-linecap:round;stroke-linejoin:round;stroke-miterlimit:4;stroke-dasharray:none;stroke-dashoffset:0;stroke-opacity:1;-inkscape-stroke:none;stop-color:#000000"
       d="m 112.05381,149.91367 a 14.000237,14.000237 0 0 0 14.00025,-14.0001 14.000237,14.000237 0 0 0 -1.87575,-7.00013 14.000237,14.000237 0 0 1 -12.1245,7.00013 14.000237,14.000237 0 0 1 -0.147,-0.009 14.000208,14.000208 0 0 1 -1.72895,5.00633 14.000208,14.000208 0 0 0 -11.976903,-6.99585 14.000237,14.000237 0 0 0 -0.1475,1.99458 14.000237,14.000237 0 0 0 14.000353,14.0001 z M 98.200957,133.91891 a 14.000237,14.000237 0 0 1 1.72905,-5.00633 14.000237,14.000237 0 0 0 11.976803,6.99585 14.000208,14.000208 0 0 0 0.1474,-1.99467 14.000208,14.000208 0 0 0 -14.000103,-14.00009 14.000208,14.000208 0 0 0 -14.00025,14.00009 14.000208,14.000208 0 0 0 1.8757,7.00014 14.000208,14.000208 0 0 1 12.12455,-7.00014 14.000208,14.000208 0 0 1 0.14685,0.009 z" />
  </g>
</svg>
